<svg viewBox="0 0 464 128" xmlns="http://www.w3.org/2000/svg" role="img" aria-label="HoloMUSH">
<g transform="translate(16,16) scale(0.375)">
<defs><linearGradient id="gl" x1="0" y1="0" x2="1" y2="1"><stop offset="0" stop-color="#34d6f6"/><stop offset="1" stop-color="#1565c0"/></linearGradient>
<mask id="cutl"><rect width="256" height="256" rx="58" fill="#fff"/><path d="M89.92 188L74.08 188L74.08 71.20L89.92 71.20L89.92 100L89.76 116.80L89.92 116.80Q91.04 108.16 97.20 103.28Q103.36 98.40 113.44 98.40Q126.56 98.40 134.40 106.72Q142.24 115.04 142.24 129.12L142.24 188L126.40 188L126.40 131.52Q126.40 122.08 121.60 116.96Q116.80 111.84 108.48 111.84Q99.84 111.84 94.88 117.20Q89.92 122.56 89.92 132.16" fill="#000"/></mask></defs>
<rect width="256" height="256" rx="58" fill="url(#gl)" mask="url(#cutl)"/>
<rect x="158" y="170" width="46" height="16" rx="3" fill="#ffb300"/></g>
<path d="M147.92 69.04L124.48 80.60L124.48 75.52L140.95 67.58Q141.98 67.10 142.90 66.75Q143.81 66.40 144.30 66.29Q143.81 66.18 142.84 65.83Q141.87 65.48 140.95 64.99L124.48 57L124.48 51.76L147.92 63.32" fill="#1565c0" opacity="0.55"/>
<path d="M162.50 84L157.15 84L157.15 44.58L162.50 44.58L162.50 54.30L162.44 59.97L162.50 59.97Q162.88 57.05 164.96 55.41Q167.03 53.76 170.44 53.76Q174.86 53.76 177.51 56.57Q180.16 59.38 180.16 64.13L180.16 84L174.81 84L174.81 64.94Q174.81 61.75 173.19 60.02Q171.57 58.30 168.76 58.30Q165.85 58.30 164.17 60.11Q162.50 61.91 162.50 65.15M201 84.43Q195.55 84.43 192.33 81.30Q189.12 78.17 189.12 72.55L189.12 65.75Q189.12 60.13 192.33 57Q195.55 53.87 201 53.87Q206.45 53.87 209.67 57Q212.88 60.13 212.88 65.75L212.88 72.55Q212.88 78.17 209.67 81.30Q206.45 84.43 201 84.43M201 79.73Q204.02 79.73 205.78 78.03Q207.53 76.33 207.53 73.04L207.53 65.26Q207.53 61.97 205.78 60.27Q204.02 58.57 201 58.57Q197.98 58.57 196.22 60.27Q194.47 61.97 194.47 65.26L194.47 73.04Q194.47 76.33 196.22 78.03Q197.98 79.73 201 79.73M247.01 84L237.83 84Q233.78 84 231.35 81.62Q228.92 79.25 228.92 75.31L228.92 49.44L218.77 49.44L218.77 44.58L234.26 44.58L234.26 75.25Q234.26 77.03 235.26 78.09Q236.26 79.14 237.99 79.14L247.01 79.14M265.80 84.43Q260.35 84.43 257.13 81.30Q253.92 78.17 253.92 72.55L253.92 65.75Q253.92 60.13 257.13 57Q260.35 53.87 265.80 53.87Q271.25 53.87 274.47 57Q277.68 60.13 277.68 65.75L277.68 72.55Q277.68 78.17 274.47 81.30Q271.25 84.43 265.80 84.43M265.80 79.73Q268.82 79.73 270.58 78.03Q272.33 76.33 272.33 73.04L272.33 65.26Q272.33 61.97 270.58 60.27Q268.82 58.57 265.80 58.57Q262.78 58.57 261.02 60.27Q259.27 61.97 259.27 65.26L259.27 73.04Q259.27 76.33 261.02 78.03Q262.78 79.73 265.80 79.73M289.94 84L285.08 84L285.08 54.30L289.61 54.30L289.61 58.35L289.78 58.35Q289.99 56.30 291.31 55.03Q292.64 53.76 294.69 53.76Q296.69 53.76 298.04 54.95Q299.39 56.14 299.98 58.13Q300.31 56.08 301.66 54.92Q303.01 53.76 305.06 53.76Q307.87 53.76 309.59 55.89Q311.32 58.03 311.32 61.43L311.32 84L306.46 84L306.46 61.48Q306.46 59.81 305.63 58.81Q304.79 57.81 303.38 57.81Q301.98 57.81 301.17 58.78Q300.36 59.75 300.36 61.48L300.36 84L296.04 84L296.04 61.48Q296.04 59.81 295.23 58.81Q294.42 57.81 293.02 57.81Q291.61 57.81 290.77 58.78Q289.94 59.75 289.94 61.48M330.55 84.54Q325.31 84.54 322.18 81.46Q319.04 78.38 319.04 73.09L319.04 54.30L324.39 54.30L324.39 73.09Q324.39 76.22 326.04 78.03Q327.68 79.84 330.55 79.84Q333.46 79.84 335.14 78.03Q336.81 76.22 336.81 73.09L336.81 54.30L342.16 54.30L342.16 73.09Q342.16 78.38 339 81.46Q335.84 84.54 330.55 84.54M364.19 84.43L361.81 84.43Q356.74 84.43 353.93 82.16Q351.12 79.90 351.12 75.79L356.41 75.79Q356.41 77.74 357.84 78.84Q359.27 79.95 361.81 79.95L364.19 79.95Q366.83 79.95 368.26 78.82Q369.70 77.68 369.70 75.63Q369.70 72.01 366.13 71.58L358.14 70.45Q354.95 69.96 353.23 67.83Q351.50 65.69 351.50 62.29Q351.50 58.30 354.20 56.08Q356.90 53.87 361.76 53.87L364.13 53.87Q368.67 53.87 371.48 56.03Q374.29 58.19 374.45 61.75L369.05 61.75Q368.94 60.24 367.64 59.24Q366.35 58.24 364.13 58.24L361.76 58.24Q359.33 58.24 358 59.32Q356.68 60.40 356.68 62.24Q356.68 65.21 359.65 65.59L367.16 66.67Q374.88 67.69 374.88 75.63Q374.88 79.84 372.10 82.14Q369.32 84.43 364.19 84.43M389.30 84L383.95 84L383.95 44.58L389.30 44.58L389.30 54.30L389.24 59.97L389.30 59.97Q389.68 57.05 391.75 55.41Q393.83 53.76 397.24 53.76Q401.66 53.76 404.31 56.57Q406.96 59.38 406.96 64.13L406.96 84L401.61 84L401.61 64.94Q401.61 61.75 399.99 60.02Q398.37 58.30 395.56 58.30Q392.65 58.30 390.97 60.11Q389.30 61.91 389.30 65.15" fill="#1565c0"/>
<rect x="419.5999999999999" y="76" width="30" height="8" rx="2" fill="#ffb300"/>
</svg>
